<?xml version="1.0" standalone="no"?><!DOCTYPE svg PUBLIC "-//W3C//DTD SVG 1.1//EN" "http://www.w3.org/Graphics/SVG/1.1/DTD/svg11.dtd"><svg t="1692809042425" class="icon" viewBox="0 0 1024 1024" version="1.1" xmlns="http://www.w3.org/2000/svg" p-id="1691" xmlns:xlink="http://www.w3.org/1999/xlink" width="200" height="200"><path d="M780.181949 62.844304c0 0 15.236006 34.013675 18.762319 71.538313 3.526313 37.527708 1.179872 70.365604-4.693906 70.365604-5.860475 0-90.297562-11.728112-106.72572-7.034207-16.379039 4.684696-60.962443 92.641957-70.356394 97.332792-9.374508 4.690836-72.699766 2.343371-113.747647-9.380648-41.041742-11.725042-59.810201-18.765389-59.810201-18.765389s-23.453155 60.990073-2.340301 154.802692c21.10876 93.817736 75.049277 131.343397 117.252471 128.999003 42.236963-2.343371 76.253708 2.343371 83.281775 42.218544 7.040347 39.872103-10.54824 145.417951-55.120388 229.851968-44.561915 84.434018-75.052347 138.383744-75.052347 138.383744s225.164203-91.474364 377.61636-300.222689C1041.688871 452.194916 1008.869395 177.774893 780.181949 62.844304z" fill="#003A4A" p-id="1692"></path><path d="M410.776597 455.706903c0 0-8.214079 2.349511-41.047882 1.176802-32.833803-1.176802-64.494896-9.384741-68.012-14.071484-3.523243-4.693906 1.170662-24.626887-15.245216-39.875173-16.418948-15.242146-60.987003-22.282492-60.987003-22.282492s3.520173-22.279423 14.074553-43.389206c10.55745-21.112853 32.836873-50.423413 32.836873-50.423413-117.27396 19.932981-265.036305 97.331769-223.99047 281.44809C89.447195 752.412488 301.715693 872.024703 301.715693 872.024703s-25.802666-45.729507-44.568055-94.982258c-18.765389-49.25889-30.493501-106.71958-11.725042-123.138528 18.762319-16.425088 114.924449-38.70451 150.108786-80.919984C430.715719 530.762319 410.776597 455.706903 410.776597 455.706903z" fill="#6E3232" p-id="1693"></path></svg>